<svg width="24" height="22" viewBox="0 0 24 22" fill="none" xmlns="http://www.w3.org/2000/svg">
<path d="M15.1283 10.8909C14.9607 10.8909 14.805 10.8448 14.6668 10.7707V10.7727C14.6668 11.0364 14.5643 11.284 14.3783 11.4695C14.1924 11.6555 13.9449 11.7579 13.6815 11.7579C13.5115 11.7579 13.3539 11.7107 13.2141 11.6346C13.2 11.8759 13.1036 12.1013 12.9316 12.2735C12.7456 12.4595 12.4982 12.562 12.2346 12.562C11.7109 12.562 11.2857 12.1504 11.2551 11.6345C11.093 11.722 10.9099 11.768 10.7209 11.7558C10.2058 11.722 9.8024 11.277 9.8024 10.7423V6.3107L9.29778 7.18493C9.10558 7.51931 8.7458 7.72692 8.35843 7.72692C8.16967 7.72692 7.98321 7.67739 7.81808 7.58277C7.61243 7.46355 7.46533 7.27217 7.40416 7.04322C7.34266 6.81412 7.37448 6.57453 7.49337 6.36919C7.49353 6.36919 9.14444 3.5103 9.24516 3.33469C9.25713 3.30828 9.29124 3.2317 9.32027 3.16643C9.34798 3.10411 9.37176 3.04016 9.39455 2.97587C9.89242 1.57031 11.1252 0.697208 12.6119 0.697208C14.5426 0.697208 16.1133 2.40042 16.1133 4.49398L16.1135 9.90547C16.1135 10.1688 16.0112 10.4163 15.8254 10.6025C15.6394 10.7884 15.3919 10.8909 15.1282 10.8909L15.1283 10.8909ZM12.612 1.22075C11.3344 1.22075 10.3162 1.94234 9.88803 3.15096C9.86064 3.22771 9.83211 3.30446 9.79882 3.37924C9.70222 3.59588 9.70222 3.59587 9.675 3.62703L9.67139 3.62391C9.53659 3.87827 9.13612 4.57178 7.94669 6.63122C7.89782 6.71567 7.88486 6.81374 7.90979 6.90754C7.93504 7.00135 7.99556 7.08039 8.07936 7.12877C8.33945 7.27816 8.69565 7.18174 8.84389 6.92345L9.83753 5.20315C9.89689 5.10065 10.0169 5.05031 10.1321 5.08147C10.2465 5.11214 10.3261 5.21594 10.3261 5.33434V10.7425C10.3261 10.9976 10.5186 11.2179 10.7552 11.2335C10.8917 11.2407 11.0189 11.1949 11.1145 11.0995C11.2015 11.0126 11.2493 10.8968 11.2493 10.773V7.23598C11.2493 7.09134 11.3666 6.97408 11.5112 6.97408C11.6559 6.97408 11.7731 7.09117 11.7731 7.23598L11.773 11.5769C11.773 11.8314 11.9801 12.0386 12.2346 12.0386C12.3583 12.0386 12.4744 11.9907 12.5615 11.9038C12.6484 11.8167 12.6963 11.7006 12.6963 11.5769V7.23597C12.6963 7.09133 12.8133 6.97408 12.9581 6.97408C13.1028 6.97408 13.22 7.09117 13.22 7.23597L13.2199 10.7323V10.773C13.2199 11.0273 13.427 11.2344 13.6817 11.2344C13.8052 11.2344 13.9209 11.1864 14.0085 11.0991C14.0954 11.0124 14.1433 10.8966 14.1433 10.7728V7.23579C14.1433 7.09115 14.2604 6.97389 14.4052 6.97389C14.5499 6.97389 14.6671 7.09098 14.6671 7.23579L14.6668 9.9056C14.6668 10.1603 14.8739 10.3674 15.1283 10.3674C15.2521 10.3674 15.3678 10.3194 15.4548 10.2326C15.542 10.1454 15.5897 10.0292 15.5897 9.9056L15.5899 4.49411C15.5899 2.68938 14.254 1.22081 12.6119 1.22081L12.612 1.22075Z" fill="#103E13"/>
<path d="M4.83859 14.6521L8.63893 12.3722C9.09712 12.0971 9.68668 12.214 9.98055 12.6386C10.0878 12.7932 10.1426 12.9734 10.1511 13.157C10.2928 13.083 10.4469 13.0428 10.6039 13.0428C10.6842 13.0428 10.7649 13.0528 10.8446 13.0727C11.1 13.1365 11.3151 13.296 11.4504 13.5217C11.5859 13.7476 11.6254 14.0125 11.5616 14.2675C11.5027 14.5035 11.3592 14.7021 11.1597 14.8384C11.2992 14.9207 11.4196 15.033 11.5052 15.176C11.6407 15.402 11.6802 15.6667 11.6165 15.9221C11.5528 16.1771 11.3932 16.3922 11.1672 16.5279L11.1659 16.5287C11.303 16.6108 11.4212 16.722 11.5059 16.8629C11.6415 17.0889 11.681 17.3537 11.6172 17.6091C11.5533 17.8642 11.3937 18.0794 11.168 18.2149L6.52776 20.9986C5.66172 21.518 4.66053 21.6973 3.70905 21.5029C2.74904 21.3068 1.95398 20.755 1.47056 19.9491C0.705522 18.6741 0.820175 17.1676 1.76919 16.0178C1.81265 15.9654 1.85545 15.9119 1.89432 15.8565C1.93548 15.7979 1.98353 15.7291 1.99993 15.7054C2.09816 15.53 3.70104 12.642 3.70088 12.6424C3.86274 12.3503 4.16612 12.185 4.47901 12.1852C4.62497 12.1852 4.77305 12.2211 4.90967 12.2968C5.07464 12.389 5.21322 12.5233 5.31014 12.6852C5.50939 13.0173 5.51644 13.4328 5.32883 13.7691L4.83859 14.6521ZM4.86138 12.9544C4.81055 12.8696 4.74068 12.802 4.65524 12.7542C4.47862 12.6564 4.25625 12.7201 4.15901 12.896C3.01206 14.9623 2.62109 15.6665 2.4702 15.9171L2.47365 15.9179C2.46102 15.9599 2.46102 15.9599 2.32294 16.1572C2.27604 16.2239 2.22504 16.288 2.17305 16.3512C1.357 17.3399 1.26225 18.5841 1.91935 19.6797C2.32638 20.3583 2.99909 20.8236 3.81362 20.9899C4.63702 21.1573 5.50487 21.0015 6.25812 20.5496L10.8988 17.7656C11.0048 17.7022 11.0795 17.6013 11.1094 17.4818C11.1392 17.3624 11.1207 17.2382 11.0571 17.1323C10.9262 16.9142 10.642 16.8425 10.4239 16.9739L8.13457 18.3473C8.01059 18.4218 7.84955 18.3818 7.77526 18.2576C7.70081 18.1336 7.74098 17.9728 7.86496 17.8983L10.1545 16.5249L10.898 16.0788C11.0039 16.0152 11.0789 15.9143 11.1087 15.7951C11.1386 15.6756 11.12 15.5513 11.0564 15.4455C10.9254 15.2272 10.6412 15.1562 10.4232 15.2871L7.3902 17.1066C7.2659 17.1812 7.10535 17.1408 7.0309 17.0169C6.95644 16.8929 6.99679 16.732 7.1206 16.6576L10.8431 14.4245C10.949 14.3609 11.0238 14.2602 11.0536 14.1406C11.0835 14.0212 11.0649 13.8971 11.0015 13.7911C10.938 13.6854 10.8372 13.6106 10.7176 13.5807C10.5974 13.5509 10.4738 13.5694 10.3681 13.6327L9.67905 14.0462C9.67889 14.0462 9.67889 14.0463 9.67872 14.0463H9.67856L6.64569 15.8658C6.52138 15.9406 6.36067 15.9003 6.28638 15.7761C6.21193 15.6521 6.25227 15.4913 6.37608 15.4168L9.40912 13.5973C9.51506 13.5337 9.59 13.4328 9.61985 13.3136C9.65265 13.1827 9.62772 13.0489 9.54999 12.9368C9.41519 12.7418 9.12689 12.6899 8.90829 12.8213L4.27095 15.6033C4.16944 15.664 4.0394 15.6492 3.95428 15.567C3.86901 15.4847 3.84982 15.3553 3.90722 15.2518L4.8715 13.5145C4.96826 13.3408 4.96448 13.1263 4.86133 12.9545L4.86138 12.9544Z" fill="#103E13"/>
<path d="M22.9983 19.949C22.515 20.755 21.7202 21.3067 20.76 21.5028C19.8084 21.6968 18.8075 21.5179 17.9413 20.9985L13.3006 18.2146C13.0748 18.0792 12.9151 17.864 12.8511 17.6085C12.7876 17.3535 12.8273 17.0886 12.9626 16.863C13.0471 16.7219 13.1655 16.6107 13.3027 16.5286L13.3014 16.5278C13.0756 16.3923 12.9159 16.1772 12.8523 15.922C12.7883 15.6668 12.828 15.4018 12.9634 15.1758C13.0507 15.0307 13.1702 14.9172 13.3067 14.8367C13.1086 14.7004 12.9659 14.5025 12.9072 14.2676C12.8432 14.0123 12.8829 13.7474 13.0184 13.5218C13.1537 13.2959 13.369 13.1364 13.6242 13.0726C13.7039 13.0526 13.7847 13.0427 13.8648 13.0427C14.0219 13.0429 14.176 13.0828 14.3177 13.1569C14.3264 12.9734 14.381 12.7932 14.4883 12.6385C14.7823 12.2143 15.3714 12.0968 15.8302 12.3722L19.6304 14.6517L19.1406 13.7694C18.9527 13.4325 18.9595 13.017 19.1588 12.6847C19.2559 12.523 19.3946 12.3887 19.5604 12.2957C19.6967 12.2203 19.8443 12.1846 19.9899 12.1846C20.3026 12.1847 20.6063 12.3497 20.768 12.6418C21.3315 13.6571 22.3948 15.5718 22.4696 15.7055C22.4855 15.7286 22.5336 15.7975 22.5747 15.856C22.6139 15.9116 22.6562 15.9648 22.7 16.0176C23.6489 17.1678 23.7633 18.6741 22.9983 19.949L22.9983 19.949ZM22.296 16.3513C22.2438 16.2882 22.1927 16.2237 22.1461 16.1573C22.0044 15.9563 22.0008 15.951 21.9901 15.8984C21.8245 15.6244 21.4204 14.8969 20.3097 12.8958C20.2123 12.7202 19.9909 12.6561 19.8146 12.7535C19.7279 12.802 19.6582 12.8697 19.6073 12.9545C19.5044 13.1262 19.5004 13.3407 19.5977 13.5149L20.5616 15.2518C20.6192 15.3554 20.6 15.4846 20.5149 15.5669C20.4299 15.6494 20.3 15.6639 20.198 15.6032L15.5607 12.8212C15.3421 12.6902 15.054 12.7415 14.9188 12.9367C14.8411 13.0488 14.8163 13.1826 14.8488 13.3133C14.8787 13.4327 14.9536 13.5334 15.0597 13.5971C15.06 13.5972 15.0602 13.5975 15.0605 13.5977L18.0926 15.4167C18.2166 15.4912 18.2568 15.6519 18.1823 15.776C18.1078 15.8998 17.9473 15.9403 17.823 15.8657L14.1005 13.6327C13.9949 13.5694 13.8706 13.5507 13.7512 13.5807C13.6315 13.6105 13.5308 13.6853 13.4673 13.7914C13.4037 13.8972 13.3854 14.0213 13.4149 14.1407C13.4447 14.2601 13.5197 14.3609 13.6256 14.4246L14.35 14.859L17.3479 16.6577C17.4719 16.7321 17.5121 16.8928 17.4376 17.017C17.3632 17.1408 17.2026 17.1811 17.0783 17.1067L14.0456 15.2872C13.8275 15.156 13.5434 15.2272 13.4123 15.4456C13.3486 15.5515 13.3303 15.6757 13.3598 15.7951C13.3896 15.9145 13.4646 16.0151 13.5707 16.0789L14.3142 16.525L16.6034 17.8984C16.7273 17.9729 16.7675 18.1336 16.6931 18.2577C16.6186 18.3816 16.4581 18.4222 16.3338 18.3475L14.0446 16.974C13.939 16.9107 13.8152 16.892 13.6951 16.922C13.5757 16.9519 13.4747 17.0266 13.4113 17.1324C13.3478 17.2384 13.3293 17.3627 13.3588 17.4819C13.3886 17.6013 13.4636 17.702 13.5697 17.7658L18.2104 20.5497C18.9635 21.0015 19.8319 21.1579 20.6549 20.99C21.4692 20.8237 22.142 20.3584 22.549 19.6799C23.2068 18.584 23.1121 17.3397 22.2963 16.3513L22.296 16.3513Z" fill="#103E13"/>
</svg>
