<svg width="23" height="23" viewBox="0 0 23 23" fill="none" xmlns="http://www.w3.org/2000/svg">
<path opacity="0.1" fill-rule="evenodd" clip-rule="evenodd" d="M0.0854797 11.7743C0.0854797 5.62346 5.07173 0.637207 11.2226 0.637207C17.3734 0.637207 22.3597 5.62346 22.3597 11.7743C22.3597 17.9252 17.3734 22.9114 11.2226 22.9114C5.07173 22.9114 0.0854797 17.9252 0.0854797 11.7743Z" fill="white"/>
<path fill-rule="evenodd" clip-rule="evenodd" d="M15.8638 7.94565C16.375 8.08591 16.7776 8.4992 16.9142 9.02404C17.1624 9.97525 17.1624 11.96 17.1624 11.96C17.1624 11.96 17.1624 13.9446 16.9142 14.8959C16.7776 15.4207 16.375 15.834 15.8638 15.9743C14.9375 16.2292 11.2226 16.2292 11.2226 16.2292C11.2226 16.2292 7.50776 16.2292 6.58136 15.9743C6.0702 15.834 5.66764 15.4207 5.53103 14.8959C5.28284 13.9446 5.28284 11.96 5.28284 11.96C5.28284 11.96 5.28284 9.97525 5.53103 9.02404C5.66764 8.4992 6.0702 8.08591 6.58136 7.94565C7.50776 7.69073 11.2226 7.69073 11.2226 7.69073C11.2226 7.69073 14.9375 7.69073 15.8638 7.94565ZM10.1089 10.2894V14.0017L13.0788 12.1456L10.1089 10.2894Z" fill="white"/>
</svg>
