<svg width="23" height="23" viewBox="0 0 23 23" fill="none" xmlns="http://www.w3.org/2000/svg">
<path opacity="0.1" fill-rule="evenodd" clip-rule="evenodd" d="M0.262817 11.7743C0.262817 5.62346 5.24907 0.637207 11.3999 0.637207C17.5508 0.637207 22.537 5.62346 22.537 11.7743C22.537 17.9252 17.5508 22.9114 11.3999 22.9114C5.24907 22.9114 0.262817 17.9252 0.262817 11.7743Z" fill="white"/>
<path fill-rule="evenodd" clip-rule="evenodd" d="M17.3397 11.7661C17.3397 12.1678 17.2988 12.5689 17.2185 12.9599C17.1402 13.3417 17.0242 13.7164 16.8722 14.0747C16.7237 14.4266 16.5395 14.7658 16.3243 15.082C16.1123 15.3963 15.8681 15.6911 15.5998 15.9599C15.3309 16.2275 15.0351 16.471 14.7209 16.6839C14.4036 16.8977 14.064 17.0816 13.7119 17.2308C13.3531 17.3819 12.9775 17.4978 12.5961 17.576C12.2045 17.6565 11.8019 17.6976 11.3997 17.6976C10.9971 17.6976 10.5945 17.6565 10.2035 17.576C9.82155 17.4978 9.44594 17.3819 9.08745 17.2308C8.73534 17.0816 8.39539 16.8977 8.07809 16.6839C7.76398 16.4711 7.46813 16.2275 7.19984 15.9599C6.93127 15.6911 6.68704 15.3963 6.47473 15.082C6.26068 14.7658 6.07619 14.4266 5.92712 14.0747C5.77512 13.7164 5.65883 13.3417 5.58022 12.9599C5.50076 12.5689 5.46014 12.1678 5.46014 11.7661C5.46014 11.3641 5.50074 10.9621 5.58025 10.5719C5.65885 10.1902 5.77514 9.81486 5.92715 9.45718C6.07622 9.105 6.2607 8.76557 6.47475 8.44928C6.68706 8.13476 6.93129 7.84048 7.19986 7.57142C7.46816 7.30379 7.764 7.06082 8.07812 6.84823C8.39542 6.63361 8.73536 6.44972 9.08747 6.30026C9.44597 6.14875 9.82155 6.03263 10.2036 5.95502C10.5945 5.87509 10.9971 5.83453 11.3997 5.83453C11.802 5.83453 12.2045 5.87509 12.5961 5.95502C12.9775 6.03265 13.3531 6.14878 13.7119 6.30026C14.064 6.4497 14.4037 6.63361 14.721 6.84823C15.0351 7.06082 15.331 7.30379 15.5998 7.57142C15.8681 7.84048 16.1123 8.13476 16.3243 8.44928C16.5395 8.76557 16.7237 9.10503 16.8722 9.45718C17.0242 9.81486 17.1402 10.1902 17.2185 10.5719C17.2988 10.9621 17.3397 11.3641 17.3397 11.7661ZM9.23534 7.18448C7.82078 7.8515 6.76502 9.15307 6.43581 10.7217C6.56954 10.7229 8.68338 10.7495 11.1189 10.1033C10.2409 8.54571 9.30292 7.27458 9.23534 7.18448ZM11.5391 10.8833C8.92731 11.6641 6.42103 11.6079 6.33112 11.6045C6.32966 11.6589 6.32705 11.7116 6.32705 11.7661C6.32705 13.0674 6.81868 14.2537 7.62674 15.1507C7.625 15.148 9.01317 12.6888 11.7506 11.8049C11.8167 11.7829 11.884 11.7632 11.9507 11.7441C11.8234 11.4562 11.6844 11.1677 11.5391 10.8833ZM14.7497 7.96445C13.8566 7.1781 12.684 6.70111 11.3997 6.70111C10.9875 6.70111 10.5875 6.75093 10.2044 6.84303C10.2804 6.94499 11.2332 8.20717 12.1007 9.79777C14.0147 9.08125 14.7372 7.98298 14.7497 7.96445ZM12.2965 12.5834C12.2852 12.5871 12.2739 12.5904 12.2629 12.5944C9.26994 13.6363 8.29256 15.7359 8.28198 15.7589C9.14314 16.4276 10.2233 16.8311 11.3997 16.8311C12.1022 16.8311 12.7713 16.6882 13.3801 16.4296C13.305 15.9871 13.0103 14.4359 12.2965 12.5834ZM14.2343 15.9668C15.3732 15.1993 16.1822 13.9806 16.4078 12.5689C16.3034 12.5353 14.8842 12.0867 13.2469 12.3488C13.9123 14.1746 14.1826 15.6616 14.2343 15.9668ZM12.4911 10.5525C12.6089 10.7941 12.7229 11.04 12.8281 11.287C12.8656 11.3757 12.9021 11.4626 12.9378 11.5494C14.6804 11.3305 16.3971 11.6989 16.4705 11.7139C16.4589 10.5132 16.0288 9.41112 15.317 8.54834C15.3075 8.56192 14.4939 9.73578 12.4911 10.5525Z" fill="white"/>
</svg>
